<?xml version="1.0" encoding="utf-8"?>
<!-- Generator: Adobe Illustrator 19.0.0, SVG Export Plug-In . SVG Version: 6.00 Build 0)  -->
<svg version="1.1" id="Layer_1" xmlns="http://www.w3.org/2000/svg" xmlns:xlink="http://www.w3.org/1999/xlink" x="0px" y="0px"
	 viewBox="12 371 635 51" style="enable-background:new 12 371 635 51;" xml:space="preserve">
<style type="text/css">
	.st0{fill:#FFFFFF;}
</style>
<g transform="translate(0.000000,51.000000) scale(0.100000,-0.100000)">
	<path class="st0" d="M5663-3222c-23-11-23-12-23-240v-228h30h30v186c0,102,4,183,8,180c5-3,66-89,136-191c113-163,131-185,150-179
		c11,4,23,8,25,10c2,1,6,107,9,233l5,231h-32h-31v-185c0-102-3-185-7-185c-5,1-66,86-138,190c-71,104-132,189-135,189
		S5675-3216,5663-3222z"/>
	<path class="st0" d="M130-3280v-60h60h60v60v60h-60h-60V-3280z"/>
	<path class="st0" d="M334-3315l-78-95h-63h-63v-140v-140h60h59l3,125l3,126l75-126l75-125h67h68l-86,130l-87,129l74,86
		c116,135,113,125,36,125h-65L334-3315z"/>
	<path class="st0" d="M610-3454v-236h60h60v90c0,69,3,90,14,90c27,0,62-39,95-109l35-71h69h69l-14,23c-8,12-32,52-52,90
		c-21,37-47,74-58,81c-20,14-20,15,13,29c47,20,70,48,76,94c7,53-17,107-59,130c-26,14-62,18-170,21l-138,4V-3454z M842-3327
		c43-39,10-89-65-99l-47-7v62v61h47C806-3310,830-3316,842-3327z"/>
	<path class="st0" d="M1070-3337c35-65,67-122,71-128c5-5,9-58,9-117v-108h54c65,0,66,2,66,119v86l75,129c41,71,75,130,75,132
		s-27,4-60,4h-60l-41-81c-23-46-44-78-49-73s-22,41-39,79l-29,70l-67,3l-67,3L1070-3337z"/>
	<path class="st0" d="M1441-3247c6-16,41-113,79-218c38-104,71-198,75-207c10-26,130-26,140,0c15,37,155,442,155,447c0,3-26,5-57,3
		l-57-3l-56-175l-57-175l-36,115c-20,63-44,143-54,177l-18,63h-62h-63L1441-3247z"/>
	<path class="st0" d="M1976-3352l74-133v-102v-103h60h60v99v100l80,130c44,72,80,133,80,136s-28,5-62,5h-63l-33-64
		c-57-111-54-110-97-17l-38,81h-68h-68L1976-3352z"/>
	<path class="st0" d="M2390-3455v-235h60h60v235v235h-60h-60V-3455z"/>
	<path class="st0" d="M2600-3455v-235h60h60v91v91l27-7c32-8,42-20,84-107l33-68h68h68l-37,71c-21,39-52,86-68,104l-31,33l37,16
		c62,28,87,112,53,177c-27,53-80,69-226,69h-128V-3455z M2832-3327c19-17,23-49,10-71c-9-14-65-32-99-32c-21,0-23,4-23,60v60h47
		C2796-3310,2820-3316,2832-3327z"/>
	<path class="st0" d="M3070-3455v-235h65h65v235v235h-65h-65V-3455z"/>
	<path class="st0" d="M3426-3236c-99-36-146-107-146-220c1-112,53-193,147-225c49-17,174-17,236,0l47,14v113v114h-60h-60v-79
		c0-76-1-79-25-85c-40-10-101,11-129,45c-65,76-42,189,46,235c31,16,105,18,142,4c23-8,28-6,41,20c23,45,19,58-22,69
		C3590-3216,3472-3219,3426-3236z"/>
	<path class="st0" d="M3941-3234c-49-18-111-74-132-120c-22-49-25-152-6-199c50-117,200-174,330-124c49,19,54,26,36,44
		c-8,8-23,7-56-4c-138-47-264,39-264,180c0,143,128,231,267,183c38-13,49-13,56-4c4,7,6,17,5,22C4167-3225,4007-3210,3941-3234z"/>
	<path class="st0" d="M4270-3455v-235h125c118,0,125,1,125,20s-7,20-95,20h-95v85v85h90c89,0,90,0,90,25s-1,25-90,25h-90v85v85h95
		c88,0,95,1,95,20s-7,20-125,20h-125V-3455z"/>
	<path class="st0" d="M4695-3232c-13-38-85-451-80-458c10-17,43-11,49,8c2,9,16,91,31,182c14,91,29,174,34,184c5,14,26-34,77-177
		c69-197,69-197,99-197s31,2,104,196c40,107,76,193,78,190c4-4,62-358,63-383c0-12,41-18,52-8c3,4-41,298-67,443c-6,30-9,33-38,30
		c-30-3-32-6-109-197c-42-106-79-195-81-198c-3-2-37,86-77,197c-72,196-74,200-102,200C4712-3220,4697-3226,4695-3232z"/>
	<path class="st0" d="M5300-3424c0-112-3-218-6-235l-6-31h131c124,0,131,1,131,20s-7,20-100,20h-100v85v85h95c95,0,95,0,95,25
		s0,25-95,25h-96l3,83l3,82l98,3c89,2,97,4,97,22c0,19-7,20-125,20h-125V-3424z"/>
	<path class="st0" d="M6090-3240c0-18,7-20,80-20h80v-215v-215h25h25v154c0,84,3,181,6,215l7,61h73c67,0,74,2,74,20
		c0,19-7,20-185,20S6090-3221,6090-3240z"/>
</g>
</svg>
